<svg width="17" height="16" viewBox="0 0 17 16" fill="none" xmlns="http://www.w3.org/2000/svg">
<path d="M6.60779 13.8493V11.8108C6.60779 11.2905 7.04823 10.8686 7.59153 10.8686L9.57758 10.8686C9.83848 10.8686 10.0887 10.9679 10.2732 11.1446C10.4577 11.3213 10.5613 11.5609 10.5613 11.8108V13.8493C10.5597 14.0656 10.6482 14.2737 10.8074 14.4272C10.9665 14.5807 11.1831 14.6671 11.4089 14.6671H12.7639C13.3967 14.6686 14.0042 14.429 14.4522 14.0009C14.9003 13.5729 15.1521 12.9917 15.1521 12.3856V6.57831C15.1521 6.08871 14.9255 5.6243 14.5334 5.31019L9.92405 1.78432C9.12224 1.16611 7.97343 1.18607 7.19556 1.83173L2.69139 5.31019C2.28076 5.61504 2.03532 6.08083 2.02319 6.57831V12.3797C2.02319 13.643 3.09243 14.6671 4.41139 14.6671H5.73542C6.20456 14.6671 6.58583 14.3046 6.58923 13.8552L6.60779 13.8493Z" fill="white"/>
</svg>
